<?xml version="1.0" encoding="utf-8" standalone="no"?>
<!DOCTYPE svg PUBLIC "-//W3C//DTD SVG 1.1//EN"
  "http://www.w3.org/Graphics/SVG/1.1/DTD/svg11.dtd">
<svg xmlns:xlink="http://www.w3.org/1999/xlink" width="460.8pt" height="345.6pt" viewBox="0 0 460.8 345.6" xmlns="http://www.w3.org/2000/svg" version="1.1">
 <metadata>
  <rdf:RDF xmlns:dc="http://purl.org/dc/elements/1.1/" xmlns:cc="http://creativecommons.org/ns#" xmlns:rdf="http://www.w3.org/1999/02/22-rdf-syntax-ns#">
   <cc:Work>
    <dc:type rdf:resource="http://purl.org/dc/dcmitype/StillImage"/>
    <dc:date>2023-07-20T17:11:32.994078</dc:date>
    <dc:format>image/svg+xml</dc:format>
    <dc:creator>
     <cc:Agent>
      <dc:title>Matplotlib v3.5.1, https://matplotlib.org/</dc:title>
     </cc:Agent>
    </dc:creator>
   </cc:Work>
  </rdf:RDF>
 </metadata>
 <defs>
  <style type="text/css">*{stroke-linejoin: round; stroke-linecap: butt}</style>
 </defs>
 <g id="figure_1">
  <g id="patch_1">
   <path d="M 0 345.6 
L 460.8 345.6 
L 460.8 0 
L 0 0 
z
" style="fill: #ffffff"/>
  </g>
  <g id="axes_1">
   <g id="patch_2">
    <path d="M 48.3318 298.94295 
L 450.432 298.94295 
L 450.432 25.728 
L 48.3318 25.728 
z
" style="fill: #ffffff"/>
   </g>
   <g id="matplotlib.axis_1">
    <g id="xtick_1">
     <g id="line2d_1">
      <path d="M 186.789973 298.94295 
L 186.789973 25.728 
" clip-path="url(#p05c697e587)" style="fill: none; stroke-dasharray: 2.96,1.28; stroke-dashoffset: 0; stroke: #808080; stroke-width: 0.8"/>
     </g>
     <g id="text_1">
      <!-- $\mathdefault{10^{2}}$ -->
      <g style="fill: #262626" transform="translate(179.881973 316.31795)scale(0.088 -0.088)">
       <defs>
        <path id="ArialMT-31" d="M 2384 0 
L 1822 0 
L 1822 3584 
Q 1619 3391 1289 3197 
Q 959 3003 697 2906 
L 697 3450 
Q 1169 3672 1522 3987 
Q 1875 4303 2022 4600 
L 2384 4600 
L 2384 0 
z
" transform="scale(0.015625)"/>
        <path id="ArialMT-30" d="M 266 2259 
Q 266 3072 433 3567 
Q 600 4063 929 4331 
Q 1259 4600 1759 4600 
Q 2128 4600 2406 4451 
Q 2684 4303 2865 4023 
Q 3047 3744 3150 3342 
Q 3253 2941 3253 2259 
Q 3253 1453 3087 958 
Q 2922 463 2592 192 
Q 2263 -78 1759 -78 
Q 1097 -78 719 397 
Q 266 969 266 2259 
z
M 844 2259 
Q 844 1131 1108 757 
Q 1372 384 1759 384 
Q 2147 384 2411 759 
Q 2675 1134 2675 2259 
Q 2675 3391 2411 3762 
Q 2147 4134 1753 4134 
Q 1366 4134 1134 3806 
Q 844 3388 844 2259 
z
" transform="scale(0.015625)"/>
        <path id="ArialMT-32" d="M 3222 541 
L 3222 0 
L 194 0 
Q 188 203 259 391 
Q 375 700 629 1000 
Q 884 1300 1366 1694 
Q 2113 2306 2375 2664 
Q 2638 3022 2638 3341 
Q 2638 3675 2398 3904 
Q 2159 4134 1775 4134 
Q 1369 4134 1125 3890 
Q 881 3647 878 3216 
L 300 3275 
Q 359 3922 746 4261 
Q 1134 4600 1788 4600 
Q 2447 4600 2831 4234 
Q 3216 3869 3216 3328 
Q 3216 3053 3103 2787 
Q 2991 2522 2730 2228 
Q 2469 1934 1863 1422 
Q 1356 997 1212 845 
Q 1069 694 975 541 
L 3222 541 
z
" transform="scale(0.015625)"/>
       </defs>
       <use xlink:href="#ArialMT-31" transform="translate(0 0.99375)"/>
       <use xlink:href="#ArialMT-30" transform="translate(55.615234 0.99375)"/>
       <use xlink:href="#ArialMT-32" transform="translate(112.972813 70.6875)scale(0.7)"/>
      </g>
     </g>
    </g>
    <g id="xtick_2">
     <g id="line2d_2">
      <path d="M 429.653237 298.94295 
L 429.653237 25.728 
" clip-path="url(#p05c697e587)" style="fill: none; stroke-dasharray: 2.96,1.28; stroke-dashoffset: 0; stroke: #808080; stroke-width: 0.8"/>
     </g>
     <g id="text_2">
      <!-- $\mathdefault{10^{3}}$ -->
      <g style="fill: #262626" transform="translate(422.745237 316.31795)scale(0.088 -0.088)">
       <defs>
        <path id="ArialMT-33" d="M 269 1209 
L 831 1284 
Q 928 806 1161 595 
Q 1394 384 1728 384 
Q 2125 384 2398 659 
Q 2672 934 2672 1341 
Q 2672 1728 2419 1979 
Q 2166 2231 1775 2231 
Q 1616 2231 1378 2169 
L 1441 2663 
Q 1497 2656 1531 2656 
Q 1891 2656 2178 2843 
Q 2466 3031 2466 3422 
Q 2466 3731 2256 3934 
Q 2047 4138 1716 4138 
Q 1388 4138 1169 3931 
Q 950 3725 888 3313 
L 325 3413 
Q 428 3978 793 4289 
Q 1159 4600 1703 4600 
Q 2078 4600 2393 4439 
Q 2709 4278 2876 4000 
Q 3044 3722 3044 3409 
Q 3044 3113 2884 2869 
Q 2725 2625 2413 2481 
Q 2819 2388 3044 2092 
Q 3269 1797 3269 1353 
Q 3269 753 2831 336 
Q 2394 -81 1725 -81 
Q 1122 -81 723 278 
Q 325 638 269 1209 
z
" transform="scale(0.015625)"/>
       </defs>
       <use xlink:href="#ArialMT-31" transform="translate(0 0.99375)"/>
       <use xlink:href="#ArialMT-30" transform="translate(55.615234 0.99375)"/>
       <use xlink:href="#ArialMT-33" transform="translate(112.972813 70.6875)scale(0.7)"/>
      </g>
     </g>
    </g>
    <g id="xtick_3"/>
    <g id="xtick_4"/>
    <g id="xtick_5"/>
    <g id="xtick_6"/>
    <g id="xtick_7"/>
    <g id="xtick_8"/>
    <g id="xtick_9"/>
    <g id="xtick_10"/>
    <g id="xtick_11"/>
    <g id="xtick_12"/>
    <g id="xtick_13"/>
    <g id="xtick_14"/>
    <g id="xtick_15"/>
    <g id="xtick_16"/>
    <g id="xtick_17"/>
    <g id="text_3">
     <!-- Team Size -->
     <g style="fill: #262626" transform="translate(219.041119 331.372106)scale(0.13 -0.13)">
      <defs>
       <path id="ArialMT-54" d="M 1659 0 
L 1659 4041 
L 150 4041 
L 150 4581 
L 3781 4581 
L 3781 4041 
L 2266 4041 
L 2266 0 
L 1659 0 
z
" transform="scale(0.015625)"/>
       <path id="ArialMT-65" d="M 2694 1069 
L 3275 997 
Q 3138 488 2766 206 
Q 2394 -75 1816 -75 
Q 1088 -75 661 373 
Q 234 822 234 1631 
Q 234 2469 665 2931 
Q 1097 3394 1784 3394 
Q 2450 3394 2872 2941 
Q 3294 2488 3294 1666 
Q 3294 1616 3291 1516 
L 816 1516 
Q 847 969 1125 678 
Q 1403 388 1819 388 
Q 2128 388 2347 550 
Q 2566 713 2694 1069 
z
M 847 1978 
L 2700 1978 
Q 2663 2397 2488 2606 
Q 2219 2931 1791 2931 
Q 1403 2931 1139 2672 
Q 875 2413 847 1978 
z
" transform="scale(0.015625)"/>
       <path id="ArialMT-61" d="M 2588 409 
Q 2275 144 1986 34 
Q 1697 -75 1366 -75 
Q 819 -75 525 192 
Q 231 459 231 875 
Q 231 1119 342 1320 
Q 453 1522 633 1644 
Q 813 1766 1038 1828 
Q 1203 1872 1538 1913 
Q 2219 1994 2541 2106 
Q 2544 2222 2544 2253 
Q 2544 2597 2384 2738 
Q 2169 2928 1744 2928 
Q 1347 2928 1158 2789 
Q 969 2650 878 2297 
L 328 2372 
Q 403 2725 575 2942 
Q 747 3159 1072 3276 
Q 1397 3394 1825 3394 
Q 2250 3394 2515 3294 
Q 2781 3194 2906 3042 
Q 3031 2891 3081 2659 
Q 3109 2516 3109 2141 
L 3109 1391 
Q 3109 606 3145 398 
Q 3181 191 3288 0 
L 2700 0 
Q 2613 175 2588 409 
z
M 2541 1666 
Q 2234 1541 1622 1453 
Q 1275 1403 1131 1340 
Q 988 1278 909 1158 
Q 831 1038 831 891 
Q 831 666 1001 516 
Q 1172 366 1500 366 
Q 1825 366 2078 508 
Q 2331 650 2450 897 
Q 2541 1088 2541 1459 
L 2541 1666 
z
" transform="scale(0.015625)"/>
       <path id="ArialMT-6d" d="M 422 0 
L 422 3319 
L 925 3319 
L 925 2853 
Q 1081 3097 1340 3245 
Q 1600 3394 1931 3394 
Q 2300 3394 2536 3241 
Q 2772 3088 2869 2813 
Q 3263 3394 3894 3394 
Q 4388 3394 4653 3120 
Q 4919 2847 4919 2278 
L 4919 0 
L 4359 0 
L 4359 2091 
Q 4359 2428 4304 2576 
Q 4250 2725 4106 2815 
Q 3963 2906 3769 2906 
Q 3419 2906 3187 2673 
Q 2956 2441 2956 1928 
L 2956 0 
L 2394 0 
L 2394 2156 
Q 2394 2531 2256 2718 
Q 2119 2906 1806 2906 
Q 1569 2906 1367 2781 
Q 1166 2656 1075 2415 
Q 984 2175 984 1722 
L 984 0 
L 422 0 
z
" transform="scale(0.015625)"/>
       <path id="ArialMT-20" transform="scale(0.015625)"/>
       <path id="ArialMT-53" d="M 288 1472 
L 859 1522 
Q 900 1178 1048 958 
Q 1197 738 1509 602 
Q 1822 466 2213 466 
Q 2559 466 2825 569 
Q 3091 672 3220 851 
Q 3350 1031 3350 1244 
Q 3350 1459 3225 1620 
Q 3100 1781 2813 1891 
Q 2628 1963 1997 2114 
Q 1366 2266 1113 2400 
Q 784 2572 623 2826 
Q 463 3081 463 3397 
Q 463 3744 659 4045 
Q 856 4347 1234 4503 
Q 1613 4659 2075 4659 
Q 2584 4659 2973 4495 
Q 3363 4331 3572 4012 
Q 3781 3694 3797 3291 
L 3216 3247 
Q 3169 3681 2898 3903 
Q 2628 4125 2100 4125 
Q 1550 4125 1298 3923 
Q 1047 3722 1047 3438 
Q 1047 3191 1225 3031 
Q 1400 2872 2139 2705 
Q 2878 2538 3153 2413 
Q 3553 2228 3743 1945 
Q 3934 1663 3934 1294 
Q 3934 928 3725 604 
Q 3516 281 3123 101 
Q 2731 -78 2241 -78 
Q 1619 -78 1198 103 
Q 778 284 539 648 
Q 300 1013 288 1472 
z
" transform="scale(0.015625)"/>
       <path id="ArialMT-69" d="M 425 3934 
L 425 4581 
L 988 4581 
L 988 3934 
L 425 3934 
z
M 425 0 
L 425 3319 
L 988 3319 
L 988 0 
L 425 0 
z
" transform="scale(0.015625)"/>
       <path id="ArialMT-7a" d="M 125 0 
L 125 456 
L 2238 2881 
Q 1878 2863 1603 2863 
L 250 2863 
L 250 3319 
L 2963 3319 
L 2963 2947 
L 1166 841 
L 819 456 
Q 1197 484 1528 484 
L 3063 484 
L 3063 0 
L 125 0 
z
" transform="scale(0.015625)"/>
      </defs>
      <use xlink:href="#ArialMT-54"/>
      <use xlink:href="#ArialMT-65" x="49.958984"/>
      <use xlink:href="#ArialMT-61" x="105.574219"/>
      <use xlink:href="#ArialMT-6d" x="161.189453"/>
      <use xlink:href="#ArialMT-20" x="244.490234"/>
      <use xlink:href="#ArialMT-53" x="272.273438"/>
      <use xlink:href="#ArialMT-69" x="338.972656"/>
      <use xlink:href="#ArialMT-7a" x="361.189453"/>
      <use xlink:href="#ArialMT-65" x="411.189453"/>
     </g>
    </g>
   </g>
   <g id="matplotlib.axis_2">
    <g id="ytick_1">
     <g id="line2d_3">
      <path d="M 48.3318 235.387458 
L 450.432 235.387458 
" clip-path="url(#p05c697e587)" style="fill: none; stroke-dasharray: 2.96,1.28; stroke-dashoffset: 0; stroke: #808080; stroke-width: 0.8"/>
     </g>
     <g id="text_4">
      <!-- $\mathdefault{10^{0}}$ -->
      <g style="fill: #262626" transform="translate(26.2158 239.924958)scale(0.088 -0.088)">
       <use xlink:href="#ArialMT-31" transform="translate(0 0.99375)"/>
       <use xlink:href="#ArialMT-30" transform="translate(55.615234 0.99375)"/>
       <use xlink:href="#ArialMT-30" transform="translate(112.972813 70.6875)scale(0.7)"/>
      </g>
     </g>
    </g>
    <g id="ytick_2">
     <g id="line2d_4">
      <path d="M 48.3318 117.646276 
L 450.432 117.646276 
" clip-path="url(#p05c697e587)" style="fill: none; stroke-dasharray: 2.96,1.28; stroke-dashoffset: 0; stroke: #808080; stroke-width: 0.8"/>
     </g>
     <g id="text_5">
      <!-- $\mathdefault{10^{1}}$ -->
      <g style="fill: #262626" transform="translate(26.2158 122.183776)scale(0.088 -0.088)">
       <use xlink:href="#ArialMT-31" transform="translate(0 0.99375)"/>
       <use xlink:href="#ArialMT-30" transform="translate(55.615234 0.99375)"/>
       <use xlink:href="#ArialMT-31" transform="translate(112.972813 70.6875)scale(0.7)"/>
      </g>
     </g>
    </g>
    <g id="ytick_3"/>
    <g id="ytick_4"/>
    <g id="ytick_5"/>
    <g id="ytick_6"/>
    <g id="ytick_7"/>
    <g id="ytick_8"/>
    <g id="ytick_9"/>
    <g id="ytick_10"/>
    <g id="ytick_11"/>
    <g id="ytick_12"/>
    <g id="ytick_13"/>
    <g id="ytick_14"/>
    <g id="ytick_15"/>
    <g id="ytick_16"/>
    <g id="ytick_17"/>
    <g id="ytick_18"/>
    <g id="ytick_19"/>
    <g id="ytick_20"/>
    <g id="ytick_21"/>
    <g id="ytick_22"/>
    <g id="text_6">
     <!-- GUPs -->
     <g style="fill: #262626" transform="translate(19.63205 179.671178)rotate(-90)scale(0.13 -0.13)">
      <defs>
       <path id="ArialMT-47" d="M 2638 1797 
L 2638 2334 
L 4578 2338 
L 4578 638 
Q 4131 281 3656 101 
Q 3181 -78 2681 -78 
Q 2006 -78 1454 211 
Q 903 500 622 1047 
Q 341 1594 341 2269 
Q 341 2938 620 3517 
Q 900 4097 1425 4378 
Q 1950 4659 2634 4659 
Q 3131 4659 3532 4498 
Q 3934 4338 4162 4050 
Q 4391 3763 4509 3300 
L 3963 3150 
Q 3859 3500 3706 3700 
Q 3553 3900 3268 4020 
Q 2984 4141 2638 4141 
Q 2222 4141 1919 4014 
Q 1616 3888 1430 3681 
Q 1244 3475 1141 3228 
Q 966 2803 966 2306 
Q 966 1694 1177 1281 
Q 1388 869 1791 669 
Q 2194 469 2647 469 
Q 3041 469 3416 620 
Q 3791 772 3984 944 
L 3984 1797 
L 2638 1797 
z
" transform="scale(0.015625)"/>
       <path id="ArialMT-55" d="M 3500 4581 
L 4106 4581 
L 4106 1934 
Q 4106 1244 3950 837 
Q 3794 431 3386 176 
Q 2978 -78 2316 -78 
Q 1672 -78 1262 144 
Q 853 366 678 786 
Q 503 1206 503 1934 
L 503 4581 
L 1109 4581 
L 1109 1938 
Q 1109 1341 1220 1058 
Q 1331 775 1601 622 
Q 1872 469 2263 469 
Q 2931 469 3215 772 
Q 3500 1075 3500 1938 
L 3500 4581 
z
" transform="scale(0.015625)"/>
       <path id="ArialMT-50" d="M 494 0 
L 494 4581 
L 2222 4581 
Q 2678 4581 2919 4538 
Q 3256 4481 3484 4323 
Q 3713 4166 3852 3881 
Q 3991 3597 3991 3256 
Q 3991 2672 3619 2267 
Q 3247 1863 2275 1863 
L 1100 1863 
L 1100 0 
L 494 0 
z
M 1100 2403 
L 2284 2403 
Q 2872 2403 3119 2622 
Q 3366 2841 3366 3238 
Q 3366 3525 3220 3729 
Q 3075 3934 2838 4000 
Q 2684 4041 2272 4041 
L 1100 4041 
L 1100 2403 
z
" transform="scale(0.015625)"/>
       <path id="ArialMT-73" d="M 197 991 
L 753 1078 
Q 800 744 1014 566 
Q 1228 388 1613 388 
Q 2000 388 2187 545 
Q 2375 703 2375 916 
Q 2375 1106 2209 1216 
Q 2094 1291 1634 1406 
Q 1016 1563 777 1677 
Q 538 1791 414 1992 
Q 291 2194 291 2438 
Q 291 2659 392 2848 
Q 494 3038 669 3163 
Q 800 3259 1026 3326 
Q 1253 3394 1513 3394 
Q 1903 3394 2198 3281 
Q 2494 3169 2634 2976 
Q 2775 2784 2828 2463 
L 2278 2388 
Q 2241 2644 2061 2787 
Q 1881 2931 1553 2931 
Q 1166 2931 1000 2803 
Q 834 2675 834 2503 
Q 834 2394 903 2306 
Q 972 2216 1119 2156 
Q 1203 2125 1616 2013 
Q 2213 1853 2448 1751 
Q 2684 1650 2818 1456 
Q 2953 1263 2953 975 
Q 2953 694 2789 445 
Q 2625 197 2315 61 
Q 2006 -75 1616 -75 
Q 969 -75 630 194 
Q 291 463 197 991 
z
" transform="scale(0.015625)"/>
      </defs>
      <use xlink:href="#ArialMT-47"/>
      <use xlink:href="#ArialMT-55" x="77.783203"/>
      <use xlink:href="#ArialMT-50" x="150"/>
      <use xlink:href="#ArialMT-73" x="216.699219"/>
     </g>
    </g>
   </g>
   <g id="PolyCollection_1">
    <defs>
     <path id="m079869306a" d="M 66.609082 -59.089671 
L 66.609082 -59.075911 
L 139.718209 -93.283003 
L 212.827336 -126.555895 
L 285.936464 -157.930217 
L 359.045591 -185.558729 
L 432.154718 -209.920074 
L 432.154718 -209.982389 
L 432.154718 -209.982389 
L 359.045591 -185.797227 
L 285.936464 -157.974944 
L 212.827336 -126.682145 
L 139.718209 -93.332892 
L 66.609082 -59.089671 
z
" style="stroke: #edb081; stroke-opacity: 0.2; stroke-width: 0.8"/>
    </defs>
    <g clip-path="url(#p05c697e587)">
     <use xlink:href="#m079869306a" x="0" y="345.6" style="fill: #edb081; fill-opacity: 0.2; stroke: #edb081; stroke-opacity: 0.2; stroke-width: 0.8"/>
    </g>
   </g>
   <g id="PolyCollection_2">
    <defs>
     <path id="m300969be5f" d="M 66.609082 -94.229031 
L 66.609082 -94.214211 
L 139.718209 -127.78243 
L 212.827336 -159.985116 
L 285.936464 -189.599387 
L 359.045591 -214.972205 
L 432.154718 -239.272026 
L 432.154718 -239.291086 
L 432.154718 -239.291086 
L 359.045591 -215.12628 
L 285.936464 -189.675393 
L 212.827336 -160.06324 
L 139.718209 -127.899721 
L 66.609082 -94.229031 
z
" style="stroke: #edae7f; stroke-opacity: 0.2; stroke-width: 0.8"/>
    </defs>
    <g clip-path="url(#p05c697e587)">
     <use xlink:href="#m300969be5f" x="0" y="345.6" style="fill: #edae7f; fill-opacity: 0.2; stroke: #edae7f; stroke-opacity: 0.2; stroke-width: 0.8"/>
    </g>
   </g>
   <g id="PolyCollection_3">
    <defs>
     <path id="m27547731a4" d="M 66.609082 -128.933058 
L 66.609082 -128.925293 
L 139.718209 -161.567934 
L 212.827336 -192.131326 
L 285.936464 -219.749524 
L 359.045591 -244.795222 
L 432.154718 -269.366402 
L 432.154718 -269.442302 
L 432.154718 -269.442302 
L 359.045591 -244.838165 
L 285.936464 -220.112115 
L 212.827336 -192.241016 
L 139.718209 -161.662116 
L 66.609082 -128.933058 
z
" style="stroke: #ecaa7d; stroke-opacity: 0.2; stroke-width: 0.8"/>
    </defs>
    <g clip-path="url(#p05c697e587)">
     <use xlink:href="#m27547731a4" x="0" y="345.6" style="fill: #ecaa7d; fill-opacity: 0.2; stroke: #ecaa7d; stroke-opacity: 0.2; stroke-width: 0.8"/>
    </g>
   </g>
   <g id="PolyCollection_4">
    <defs>
     <path id="m7ea0c88750" d="M 66.609082 -162.973629 
L 66.609082 -162.884024 
L 139.718209 -194.17573 
L 212.827336 -222.831347 
L 285.936464 -248.991302 
L 359.045591 -273.93365 
L 432.154718 -296.24307 
L 432.154718 -296.370227 
L 432.154718 -296.370227 
L 359.045591 -273.948362 
L 285.936464 -249.060155 
L 212.827336 -222.931547 
L 139.718209 -194.213214 
L 66.609082 -162.973629 
z
" style="stroke: #eca278; stroke-opacity: 0.2; stroke-width: 0.8"/>
    </defs>
    <g clip-path="url(#p05c697e587)">
     <use xlink:href="#m7ea0c88750" x="0" y="345.6" style="fill: #eca278; fill-opacity: 0.2; stroke: #eca278; stroke-opacity: 0.2; stroke-width: 0.8"/>
    </g>
   </g>
   <g id="PolyCollection_5">
    <defs>
     <path id="m6a94f1a1d4" d="M 66.609082 -195.185694 
L 66.609082 -195.118682 
L 139.718209 -224.78568 
L 212.827336 -252.26135 
L 285.936464 -277.079041 
L 359.045591 -300.727605 
L 432.154718 -304.530916 
L 432.154718 -304.604867 
L 432.154718 -304.604867 
L 359.045591 -300.785529 
L 285.936464 -277.09926 
L 212.827336 -252.282167 
L 139.718209 -224.946209 
L 66.609082 -195.185694 
z
" style="stroke: #ea936f; stroke-opacity: 0.2; stroke-width: 0.8"/>
    </defs>
    <g clip-path="url(#p05c697e587)">
     <use xlink:href="#m6a94f1a1d4" x="0" y="345.6" style="fill: #ea936f; fill-opacity: 0.2; stroke: #ea936f; stroke-opacity: 0.2; stroke-width: 0.8"/>
    </g>
   </g>
   <g id="PolyCollection_6">
    <defs>
     <path id="m620b2ad845" d="M 66.609082 -224.183981 
L 66.609082 -224.100016 
L 139.718209 -251.046916 
L 212.827336 -276.80402 
L 285.936464 -299.706524 
L 359.045591 -305.49309 
L 432.154718 -305.57783 
L 432.154718 -305.938972 
L 432.154718 -305.938972 
L 359.045591 -305.770327 
L 285.936464 -299.858625 
L 212.827336 -276.841176 
L 139.718209 -251.16392 
L 66.609082 -224.183981 
z
" style="stroke: #e5735f; stroke-opacity: 0.2; stroke-width: 0.8"/>
    </defs>
    <g clip-path="url(#p05c697e587)">
     <use xlink:href="#m620b2ad845" x="0" y="345.6" style="fill: #e5735f; fill-opacity: 0.2; stroke: #e5735f; stroke-opacity: 0.2; stroke-width: 0.8"/>
    </g>
   </g>
   <g id="PolyCollection_7">
    <defs>
     <path id="m009e43e0d7" d="M 66.609082 -251.392926 
L 66.609082 -251.326591 
L 139.718209 -277.031284 
L 212.827336 -298.629005 
L 285.936464 -305.080587 
L 359.045591 -306.125139 
L 432.154718 -306.824782 
L 432.154718 -306.985665 
L 432.154718 -306.985665 
L 359.045591 -306.284902 
L 285.936464 -305.406273 
L 212.827336 -298.647896 
L 139.718209 -277.065818 
L 66.609082 -251.392926 
z
" style="stroke: #c34167; stroke-opacity: 0.2; stroke-width: 0.8"/>
    </defs>
    <g clip-path="url(#p05c697e587)">
     <use xlink:href="#m009e43e0d7" x="0" y="345.6" style="fill: #c34167; fill-opacity: 0.2; stroke: #c34167; stroke-opacity: 0.2; stroke-width: 0.8"/>
    </g>
   </g>
   <g id="PolyCollection_8">
    <defs>
     <path id="m7ee9dbe8a7" d="M 66.609082 -276.61095 
L 66.609082 -276.556322 
L 139.718209 -297.658479 
L 212.827336 -304.923428 
L 285.936464 -304.135346 
L 359.045591 -305.279467 
L 432.154718 -307.347152 
L 432.154718 -307.453139 
L 432.154718 -307.453139 
L 359.045591 -305.32318 
L 285.936464 -304.375705 
L 212.827336 -305.134507 
L 139.718209 -297.733669 
L 66.609082 -276.61095 
z
" style="stroke: #4b2362; stroke-opacity: 0.2; stroke-width: 0.8"/>
    </defs>
    <g clip-path="url(#p05c697e587)">
     <use xlink:href="#m7ee9dbe8a7" x="0" y="345.6" style="fill: #4b2362; fill-opacity: 0.2; stroke: #4b2362; stroke-opacity: 0.2; stroke-width: 0.8"/>
    </g>
   </g>
   <g id="line2d_5">
    <path d="M 66.609082 286.515888 
L 139.718209 252.284254 
L 212.827336 218.978152 
L 285.936464 187.641187 
L 359.045591 159.927587 
L 432.154718 135.641111 
" clip-path="url(#p05c697e587)" style="fill: none; stroke: #edb081; stroke-width: 1.2; stroke-linecap: round"/>
   </g>
   <g id="line2d_6">
    <path d="M 66.609082 251.379334 
L 139.718209 217.769276 
L 212.827336 185.563316 
L 285.936464 155.960501 
L 359.045591 130.562316 
L 432.154718 106.319009 
" clip-path="url(#p05c697e587)" style="fill: none; stroke: #edae7f; stroke-width: 1.2; stroke-linecap: round"/>
   </g>
   <g id="line2d_7">
    <path d="M 66.609082 216.670346 
L 139.718209 183.994102 
L 212.827336 153.398272 
L 285.936464 125.628537 
L 359.045591 100.785548 
L 432.154718 76.206092 
" clip-path="url(#p05c697e587)" style="fill: none; stroke: #ecaa7d; stroke-width: 1.2; stroke-linecap: round"/>
   </g>
   <g id="line2d_8">
    <path d="M 66.609082 182.661479 
L 139.718209 151.4 
L 212.827336 122.726181 
L 285.936464 96.565376 
L 359.045591 71.659404 
L 432.154718 49.284534 
" clip-path="url(#p05c697e587)" style="fill: none; stroke: #eca278; stroke-width: 1.2; stroke-linecap: round"/>
   </g>
   <g id="line2d_9">
    <path d="M 66.609082 150.440896 
L 139.718209 120.752483 
L 212.827336 93.328678 
L 285.936464 68.512944 
L 359.045591 44.851462 
L 432.154718 41.030593 
" clip-path="url(#p05c697e587)" style="fill: none; stroke: #ea936f; stroke-width: 1.2; stroke-linecap: round"/>
   </g>
   <g id="line2d_10">
    <path d="M 66.609082 121.457414 
L 139.718209 94.488109 
L 212.827336 68.774971 
L 285.936464 45.813696 
L 359.045591 39.959041 
L 432.154718 39.87784 
" clip-path="url(#p05c697e587)" style="fill: none; stroke: #e5735f; stroke-width: 1.2; stroke-linecap: round"/>
   </g>
   <g id="line2d_11">
    <path d="M 66.609082 94.241168 
L 139.718209 68.549755 
L 212.827336 46.962888 
L 285.936464 40.333157 
L 359.045591 39.403586 
L 432.154718 38.681247 
" clip-path="url(#p05c697e587)" style="fill: none; stroke: #c34167; stroke-width: 1.2; stroke-linecap: round"/>
   </g>
   <g id="line2d_12">
    <path d="M 66.609082 69.015932 
L 139.718209 47.910473 
L 212.827336 40.538662 
L 285.936464 41.328886 
L 359.045591 40.300439 
L 432.154718 38.197441 
" clip-path="url(#p05c697e587)" style="fill: none; stroke: #4b2362; stroke-width: 1.2; stroke-linecap: round"/>
   </g>
   <g id="line2d_13"/>
   <g id="line2d_14"/>
   <g id="line2d_15"/>
   <g id="line2d_16"/>
   <g id="line2d_17"/>
   <g id="line2d_18"/>
   <g id="line2d_19"/>
   <g id="line2d_20"/>
   <g id="patch_3">
    <path d="M 48.3318 298.94295 
L 48.3318 25.728 
" style="fill: none; stroke: #000000; stroke-linejoin: miter; stroke-linecap: square"/>
   </g>
   <g id="patch_4">
    <path d="M 450.432 298.94295 
L 450.432 25.728 
" style="fill: none; stroke: #000000; stroke-linejoin: miter; stroke-linecap: square"/>
   </g>
   <g id="patch_5">
    <path d="M 48.3318 298.94295 
L 450.432 298.94295 
" style="fill: none; stroke: #000000; stroke-linejoin: miter; stroke-linecap: square"/>
   </g>
   <g id="patch_6">
    <path d="M 48.3318 25.728 
L 450.432 25.728 
" style="fill: none; stroke: #000000; stroke-linejoin: miter; stroke-linecap: square"/>
   </g>
   <g id="text_7">
    <!-- stream-increment, v100, single node -->
    <g style="fill: #262626" transform="translate(144.253541 19.728)scale(0.13 -0.13)">
     <defs>
      <path id="ArialMT-74" d="M 1650 503 
L 1731 6 
Q 1494 -44 1306 -44 
Q 1000 -44 831 53 
Q 663 150 594 308 
Q 525 466 525 972 
L 525 2881 
L 113 2881 
L 113 3319 
L 525 3319 
L 525 4141 
L 1084 4478 
L 1084 3319 
L 1650 3319 
L 1650 2881 
L 1084 2881 
L 1084 941 
Q 1084 700 1114 631 
Q 1144 563 1211 522 
Q 1278 481 1403 481 
Q 1497 481 1650 503 
z
" transform="scale(0.015625)"/>
      <path id="ArialMT-72" d="M 416 0 
L 416 3319 
L 922 3319 
L 922 2816 
Q 1116 3169 1280 3281 
Q 1444 3394 1641 3394 
Q 1925 3394 2219 3213 
L 2025 2691 
Q 1819 2813 1613 2813 
Q 1428 2813 1281 2702 
Q 1134 2591 1072 2394 
Q 978 2094 978 1738 
L 978 0 
L 416 0 
z
" transform="scale(0.015625)"/>
      <path id="ArialMT-2d" d="M 203 1375 
L 203 1941 
L 1931 1941 
L 1931 1375 
L 203 1375 
z
" transform="scale(0.015625)"/>
      <path id="ArialMT-6e" d="M 422 0 
L 422 3319 
L 928 3319 
L 928 2847 
Q 1294 3394 1984 3394 
Q 2284 3394 2536 3286 
Q 2788 3178 2913 3003 
Q 3038 2828 3088 2588 
Q 3119 2431 3119 2041 
L 3119 0 
L 2556 0 
L 2556 2019 
Q 2556 2363 2490 2533 
Q 2425 2703 2258 2804 
Q 2091 2906 1866 2906 
Q 1506 2906 1245 2678 
Q 984 2450 984 1813 
L 984 0 
L 422 0 
z
" transform="scale(0.015625)"/>
      <path id="ArialMT-63" d="M 2588 1216 
L 3141 1144 
Q 3050 572 2676 248 
Q 2303 -75 1759 -75 
Q 1078 -75 664 370 
Q 250 816 250 1647 
Q 250 2184 428 2587 
Q 606 2991 970 3192 
Q 1334 3394 1763 3394 
Q 2303 3394 2647 3120 
Q 2991 2847 3088 2344 
L 2541 2259 
Q 2463 2594 2264 2762 
Q 2066 2931 1784 2931 
Q 1359 2931 1093 2626 
Q 828 2322 828 1663 
Q 828 994 1084 691 
Q 1341 388 1753 388 
Q 2084 388 2306 591 
Q 2528 794 2588 1216 
z
" transform="scale(0.015625)"/>
      <path id="ArialMT-2c" d="M 569 0 
L 569 641 
L 1209 641 
L 1209 0 
Q 1209 -353 1084 -570 
Q 959 -788 688 -906 
L 531 -666 
Q 709 -588 793 -436 
Q 878 -284 888 0 
L 569 0 
z
" transform="scale(0.015625)"/>
      <path id="ArialMT-76" d="M 1344 0 
L 81 3319 
L 675 3319 
L 1388 1331 
Q 1503 1009 1600 663 
Q 1675 925 1809 1294 
L 2547 3319 
L 3125 3319 
L 1869 0 
L 1344 0 
z
" transform="scale(0.015625)"/>
      <path id="ArialMT-67" d="M 319 -275 
L 866 -356 
Q 900 -609 1056 -725 
Q 1266 -881 1628 -881 
Q 2019 -881 2231 -725 
Q 2444 -569 2519 -288 
Q 2563 -116 2559 434 
Q 2191 0 1641 0 
Q 956 0 581 494 
Q 206 988 206 1678 
Q 206 2153 378 2554 
Q 550 2956 876 3175 
Q 1203 3394 1644 3394 
Q 2231 3394 2613 2919 
L 2613 3319 
L 3131 3319 
L 3131 450 
Q 3131 -325 2973 -648 
Q 2816 -972 2473 -1159 
Q 2131 -1347 1631 -1347 
Q 1038 -1347 672 -1080 
Q 306 -813 319 -275 
z
M 784 1719 
Q 784 1066 1043 766 
Q 1303 466 1694 466 
Q 2081 466 2343 764 
Q 2606 1063 2606 1700 
Q 2606 2309 2336 2618 
Q 2066 2928 1684 2928 
Q 1309 2928 1046 2623 
Q 784 2319 784 1719 
z
" transform="scale(0.015625)"/>
      <path id="ArialMT-6c" d="M 409 0 
L 409 4581 
L 972 4581 
L 972 0 
L 409 0 
z
" transform="scale(0.015625)"/>
      <path id="ArialMT-6f" d="M 213 1659 
Q 213 2581 725 3025 
Q 1153 3394 1769 3394 
Q 2453 3394 2887 2945 
Q 3322 2497 3322 1706 
Q 3322 1066 3130 698 
Q 2938 331 2570 128 
Q 2203 -75 1769 -75 
Q 1072 -75 642 372 
Q 213 819 213 1659 
z
M 791 1659 
Q 791 1022 1069 705 
Q 1347 388 1769 388 
Q 2188 388 2466 706 
Q 2744 1025 2744 1678 
Q 2744 2294 2464 2611 
Q 2184 2928 1769 2928 
Q 1347 2928 1069 2612 
Q 791 2297 791 1659 
z
" transform="scale(0.015625)"/>
      <path id="ArialMT-64" d="M 2575 0 
L 2575 419 
Q 2259 -75 1647 -75 
Q 1250 -75 917 144 
Q 584 363 401 755 
Q 219 1147 219 1656 
Q 219 2153 384 2558 
Q 550 2963 881 3178 
Q 1213 3394 1622 3394 
Q 1922 3394 2156 3267 
Q 2391 3141 2538 2938 
L 2538 4581 
L 3097 4581 
L 3097 0 
L 2575 0 
z
M 797 1656 
Q 797 1019 1065 703 
Q 1334 388 1700 388 
Q 2069 388 2326 689 
Q 2584 991 2584 1609 
Q 2584 2291 2321 2609 
Q 2059 2928 1675 2928 
Q 1300 2928 1048 2622 
Q 797 2316 797 1656 
z
" transform="scale(0.015625)"/>
     </defs>
     <use xlink:href="#ArialMT-73"/>
     <use xlink:href="#ArialMT-74" x="50"/>
     <use xlink:href="#ArialMT-72" x="77.783203"/>
     <use xlink:href="#ArialMT-65" x="111.083984"/>
     <use xlink:href="#ArialMT-61" x="166.699219"/>
     <use xlink:href="#ArialMT-6d" x="222.314453"/>
     <use xlink:href="#ArialMT-2d" x="305.615234"/>
     <use xlink:href="#ArialMT-69" x="338.916016"/>
     <use xlink:href="#ArialMT-6e" x="361.132812"/>
     <use xlink:href="#ArialMT-63" x="416.748047"/>
     <use xlink:href="#ArialMT-72" x="466.748047"/>
     <use xlink:href="#ArialMT-65" x="500.048828"/>
     <use xlink:href="#ArialMT-6d" x="555.664062"/>
     <use xlink:href="#ArialMT-65" x="638.964844"/>
     <use xlink:href="#ArialMT-6e" x="694.580078"/>
     <use xlink:href="#ArialMT-74" x="750.195312"/>
     <use xlink:href="#ArialMT-2c" x="777.978516"/>
     <use xlink:href="#ArialMT-20" x="805.761719"/>
     <use xlink:href="#ArialMT-76" x="833.544922"/>
     <use xlink:href="#ArialMT-31" x="883.544922"/>
     <use xlink:href="#ArialMT-30" x="939.160156"/>
     <use xlink:href="#ArialMT-30" x="994.775391"/>
     <use xlink:href="#ArialMT-2c" x="1050.390625"/>
     <use xlink:href="#ArialMT-20" x="1078.173828"/>
     <use xlink:href="#ArialMT-73" x="1105.957031"/>
     <use xlink:href="#ArialMT-69" x="1155.957031"/>
     <use xlink:href="#ArialMT-6e" x="1178.173828"/>
     <use xlink:href="#ArialMT-67" x="1233.789062"/>
     <use xlink:href="#ArialMT-6c" x="1289.404297"/>
     <use xlink:href="#ArialMT-65" x="1311.621094"/>
     <use xlink:href="#ArialMT-20" x="1367.236328"/>
     <use xlink:href="#ArialMT-6e" x="1395.019531"/>
     <use xlink:href="#ArialMT-6f" x="1450.634766"/>
     <use xlink:href="#ArialMT-64" x="1506.25"/>
     <use xlink:href="#ArialMT-65" x="1561.865234"/>
    </g>
   </g>
   <g id="legend_1">
    <g id="patch_7">
     <path d="M 332.9605 294.54295 
L 444.272 294.54295 
Q 446.032 294.54295 446.032 292.78295 
L 446.032 180.78795 
Q 446.032 179.02795 444.272 179.02795 
L 332.9605 179.02795 
Q 331.2005 179.02795 331.2005 180.78795 
L 331.2005 292.78295 
Q 331.2005 294.54295 332.9605 294.54295 
z
" style="fill: #ffffff; opacity: 0.8; stroke: #cccccc; stroke-width: 0.8; stroke-linejoin: miter"/>
    </g>
    <g id="text_8">
     <!-- device kernel league size -->
     <g style="fill: #262626" transform="translate(334.7205 189.41945)scale(0.096 -0.096)">
      <defs>
       <path id="ArialMT-6b" d="M 425 0 
L 425 4581 
L 988 4581 
L 988 1969 
L 2319 3319 
L 3047 3319 
L 1778 2088 
L 3175 0 
L 2481 0 
L 1384 1697 
L 988 1316 
L 988 0 
L 425 0 
z
" transform="scale(0.015625)"/>
       <path id="ArialMT-75" d="M 2597 0 
L 2597 488 
Q 2209 -75 1544 -75 
Q 1250 -75 995 37 
Q 741 150 617 320 
Q 494 491 444 738 
Q 409 903 409 1263 
L 409 3319 
L 972 3319 
L 972 1478 
Q 972 1038 1006 884 
Q 1059 663 1231 536 
Q 1403 409 1656 409 
Q 1909 409 2131 539 
Q 2353 669 2445 892 
Q 2538 1116 2538 1541 
L 2538 3319 
L 3100 3319 
L 3100 0 
L 2597 0 
z
" transform="scale(0.015625)"/>
      </defs>
      <use xlink:href="#ArialMT-64"/>
      <use xlink:href="#ArialMT-65" x="55.615234"/>
      <use xlink:href="#ArialMT-76" x="111.230469"/>
      <use xlink:href="#ArialMT-69" x="161.230469"/>
      <use xlink:href="#ArialMT-63" x="183.447266"/>
      <use xlink:href="#ArialMT-65" x="233.447266"/>
      <use xlink:href="#ArialMT-20" x="289.0625"/>
      <use xlink:href="#ArialMT-6b" x="316.845703"/>
      <use xlink:href="#ArialMT-65" x="366.845703"/>
      <use xlink:href="#ArialMT-72" x="422.460938"/>
      <use xlink:href="#ArialMT-6e" x="455.761719"/>
      <use xlink:href="#ArialMT-65" x="511.376953"/>
      <use xlink:href="#ArialMT-6c" x="566.992188"/>
      <use xlink:href="#ArialMT-20" x="589.208984"/>
      <use xlink:href="#ArialMT-6c" x="616.992188"/>
      <use xlink:href="#ArialMT-65" x="639.208984"/>
      <use xlink:href="#ArialMT-61" x="694.824219"/>
      <use xlink:href="#ArialMT-67" x="750.439453"/>
      <use xlink:href="#ArialMT-75" x="806.054688"/>
      <use xlink:href="#ArialMT-65" x="861.669922"/>
      <use xlink:href="#ArialMT-20" x="917.285156"/>
      <use xlink:href="#ArialMT-73" x="945.068359"/>
      <use xlink:href="#ArialMT-69" x="995.068359"/>
      <use xlink:href="#ArialMT-7a" x="1017.285156"/>
      <use xlink:href="#ArialMT-65" x="1067.285156"/>
     </g>
    </g>
    <g id="line2d_21">
     <path d="M 368.955813 199.058825 
L 377.755813 199.058825 
L 386.555813 199.058825 
" style="fill: none; stroke: #edb081; stroke-width: 1.2; stroke-linecap: round"/>
    </g>
    <g id="text_9">
     <!-- 4 -->
     <g style="fill: #262626" transform="translate(393.595813 202.138825)scale(0.088 -0.088)">
      <defs>
       <path id="ArialMT-34" d="M 2069 0 
L 2069 1097 
L 81 1097 
L 81 1613 
L 2172 4581 
L 2631 4581 
L 2631 1613 
L 3250 1613 
L 3250 1097 
L 2631 1097 
L 2631 0 
L 2069 0 
z
M 2069 1613 
L 2069 3678 
L 634 1613 
L 2069 1613 
z
" transform="scale(0.015625)"/>
      </defs>
      <use xlink:href="#ArialMT-34"/>
     </g>
    </g>
    <g id="line2d_22">
     <path d="M 368.955813 211.5067 
L 377.755813 211.5067 
L 386.555813 211.5067 
" style="fill: none; stroke: #edae7f; stroke-width: 1.2; stroke-linecap: round"/>
    </g>
    <g id="text_10">
     <!-- 8 -->
     <g style="fill: #262626" transform="translate(393.595813 214.5867)scale(0.088 -0.088)">
      <defs>
       <path id="ArialMT-38" d="M 1131 2484 
Q 781 2613 612 2850 
Q 444 3088 444 3419 
Q 444 3919 803 4259 
Q 1163 4600 1759 4600 
Q 2359 4600 2725 4251 
Q 3091 3903 3091 3403 
Q 3091 3084 2923 2848 
Q 2756 2613 2416 2484 
Q 2838 2347 3058 2040 
Q 3278 1734 3278 1309 
Q 3278 722 2862 322 
Q 2447 -78 1769 -78 
Q 1091 -78 675 323 
Q 259 725 259 1325 
Q 259 1772 486 2073 
Q 713 2375 1131 2484 
z
M 1019 3438 
Q 1019 3113 1228 2906 
Q 1438 2700 1772 2700 
Q 2097 2700 2305 2904 
Q 2513 3109 2513 3406 
Q 2513 3716 2298 3927 
Q 2084 4138 1766 4138 
Q 1444 4138 1231 3931 
Q 1019 3725 1019 3438 
z
M 838 1322 
Q 838 1081 952 856 
Q 1066 631 1291 507 
Q 1516 384 1775 384 
Q 2178 384 2440 643 
Q 2703 903 2703 1303 
Q 2703 1709 2433 1975 
Q 2163 2241 1756 2241 
Q 1359 2241 1098 1978 
Q 838 1716 838 1322 
z
" transform="scale(0.015625)"/>
      </defs>
      <use xlink:href="#ArialMT-38"/>
     </g>
    </g>
    <g id="line2d_23">
     <path d="M 368.955813 223.954575 
L 377.755813 223.954575 
L 386.555813 223.954575 
" style="fill: none; stroke: #ecaa7d; stroke-width: 1.2; stroke-linecap: round"/>
    </g>
    <g id="text_11">
     <!-- 16 -->
     <g style="fill: #262626" transform="translate(393.595813 227.034575)scale(0.088 -0.088)">
      <defs>
       <path id="ArialMT-36" d="M 3184 3459 
L 2625 3416 
Q 2550 3747 2413 3897 
Q 2184 4138 1850 4138 
Q 1581 4138 1378 3988 
Q 1113 3794 959 3422 
Q 806 3050 800 2363 
Q 1003 2672 1297 2822 
Q 1591 2972 1913 2972 
Q 2475 2972 2870 2558 
Q 3266 2144 3266 1488 
Q 3266 1056 3080 686 
Q 2894 316 2569 119 
Q 2244 -78 1831 -78 
Q 1128 -78 684 439 
Q 241 956 241 2144 
Q 241 3472 731 4075 
Q 1159 4600 1884 4600 
Q 2425 4600 2770 4297 
Q 3116 3994 3184 3459 
z
M 888 1484 
Q 888 1194 1011 928 
Q 1134 663 1356 523 
Q 1578 384 1822 384 
Q 2178 384 2434 671 
Q 2691 959 2691 1453 
Q 2691 1928 2437 2201 
Q 2184 2475 1800 2475 
Q 1419 2475 1153 2201 
Q 888 1928 888 1484 
z
" transform="scale(0.015625)"/>
      </defs>
      <use xlink:href="#ArialMT-31"/>
      <use xlink:href="#ArialMT-36" x="55.615234"/>
     </g>
    </g>
    <g id="line2d_24">
     <path d="M 368.955813 236.40245 
L 377.755813 236.40245 
L 386.555813 236.40245 
" style="fill: none; stroke: #eca278; stroke-width: 1.2; stroke-linecap: round"/>
    </g>
    <g id="text_12">
     <!-- 32 -->
     <g style="fill: #262626" transform="translate(393.595813 239.48245)scale(0.088 -0.088)">
      <use xlink:href="#ArialMT-33"/>
      <use xlink:href="#ArialMT-32" x="55.615234"/>
     </g>
    </g>
    <g id="line2d_25">
     <path d="M 368.955813 248.850325 
L 377.755813 248.850325 
L 386.555813 248.850325 
" style="fill: none; stroke: #ea936f; stroke-width: 1.2; stroke-linecap: round"/>
    </g>
    <g id="text_13">
     <!-- 64 -->
     <g style="fill: #262626" transform="translate(393.595813 251.930325)scale(0.088 -0.088)">
      <use xlink:href="#ArialMT-36"/>
      <use xlink:href="#ArialMT-34" x="55.615234"/>
     </g>
    </g>
    <g id="line2d_26">
     <path d="M 368.955813 261.2982 
L 377.755813 261.2982 
L 386.555813 261.2982 
" style="fill: none; stroke: #e5735f; stroke-width: 1.2; stroke-linecap: round"/>
    </g>
    <g id="text_14">
     <!-- 128 -->
     <g style="fill: #262626" transform="translate(393.595813 264.3782)scale(0.088 -0.088)">
      <use xlink:href="#ArialMT-31"/>
      <use xlink:href="#ArialMT-32" x="55.615234"/>
      <use xlink:href="#ArialMT-38" x="111.230469"/>
     </g>
    </g>
    <g id="line2d_27">
     <path d="M 368.955813 273.746075 
L 377.755813 273.746075 
L 386.555813 273.746075 
" style="fill: none; stroke: #c34167; stroke-width: 1.2; stroke-linecap: round"/>
    </g>
    <g id="text_15">
     <!-- 256 -->
     <g style="fill: #262626" transform="translate(393.595813 276.826075)scale(0.088 -0.088)">
      <defs>
       <path id="ArialMT-35" d="M 266 1200 
L 856 1250 
Q 922 819 1161 601 
Q 1400 384 1738 384 
Q 2144 384 2425 690 
Q 2706 997 2706 1503 
Q 2706 1984 2436 2262 
Q 2166 2541 1728 2541 
Q 1456 2541 1237 2417 
Q 1019 2294 894 2097 
L 366 2166 
L 809 4519 
L 3088 4519 
L 3088 3981 
L 1259 3981 
L 1013 2750 
Q 1425 3038 1878 3038 
Q 2478 3038 2890 2622 
Q 3303 2206 3303 1553 
Q 3303 931 2941 478 
Q 2500 -78 1738 -78 
Q 1113 -78 717 272 
Q 322 622 266 1200 
z
" transform="scale(0.015625)"/>
      </defs>
      <use xlink:href="#ArialMT-32"/>
      <use xlink:href="#ArialMT-35" x="55.615234"/>
      <use xlink:href="#ArialMT-36" x="111.230469"/>
     </g>
    </g>
    <g id="line2d_28">
     <path d="M 368.955813 286.19395 
L 377.755813 286.19395 
L 386.555813 286.19395 
" style="fill: none; stroke: #4b2362; stroke-width: 1.2; stroke-linecap: round"/>
    </g>
    <g id="text_16">
     <!-- 512 -->
     <g style="fill: #262626" transform="translate(393.595813 289.27395)scale(0.088 -0.088)">
      <use xlink:href="#ArialMT-35"/>
      <use xlink:href="#ArialMT-31" x="55.615234"/>
      <use xlink:href="#ArialMT-32" x="111.230469"/>
     </g>
    </g>
   </g>
  </g>
 </g>
 <defs>
  <clipPath id="p05c697e587">
   <rect x="48.3318" y="25.728" width="402.1002" height="273.21495"/>
  </clipPath>
 </defs>
</svg>
